<?xml version="1.0" standalone="no"?><!DOCTYPE svg PUBLIC "-//W3C//DTD SVG 1.1//EN" "http://www.w3.org/Graphics/SVG/1.1/DTD/svg11.dtd"><svg t="1586591421341" class="icon" viewBox="0 0 1024 1024" version="1.1" xmlns="http://www.w3.org/2000/svg" p-id="1912" xmlns:xlink="http://www.w3.org/1999/xlink" width="60" height="60"><defs><style type="text/css"></style></defs><path d="M63.32661623 533.02801172c49.24641668-0.35635837 98.49570639-0.08908817 147.74499886-0.08908818 48.30091696 0.01437059 96.6047097-0.26152139 144.90275364 0.10633181M154.1117653 239.29681914c-0.16955739-32.62977569-27.48844459-59.38825991-60.0607407-58.83072996-33.50055222 0.57477076-58.37091275 26.25843385-58.27032694 60.17857008 0.10058577 33.61838162 25.6376811 58.62956117 59.52333007 58.29331934C128.88791937 298.60460983 154.28706865 272.84622636 154.1117653 239.29681914zM643.58424611 627.25316918c47.71465136 0 94.9637368 0.81617555 142.1639672-0.34198776 23.919112-0.58626554 41.69966793-20.96766194 42.92105687-44.86665737 1.16678512-22.78106525-16.42984284-47.48761718-39.12181713-48.32390936-47.94455853-1.76742127-95.99832473-0.53741056-145.96320694-0.53741053C643.58424611 565.08014086 643.58424611 594.17219813 643.58424611 627.25316918zM355.97724172 533.04525535c-48.29804395-0.36785319-96.6018367-0.09196397-144.90275362-0.1005858-49.24928969-0.00574878-98.49858219-0.27301619-147.74499892 0.08334217M63.32661623 533.02801172c-34.98921134 0.25289959-54.94527493 17.88113895-54.82744834 47.31231103 0.11208057 28.31898795 19.49050042 46.43865866 52.68642504 46.59959428 98.49570639 0.47993376 196.99428853 0.44832238 295.48999494 0.02011654 33.12120422-0.143692 53.29855601-18.2691115 53.76124623-45.95010304 0.48855557-29.32196443-19.90145982-47.70315661-54.46246817-47.96755102M68.32425253 754.03912512c68.57885453 79.15177371 155.79754681 112.87074113 260.5410196 102.44725991 133.75218794-13.31170561 241.9701535-112.47127376 257.16710976-237.23403573 17.30636818-142.08924684-58.06915813-262.55559167-192.30415281-307.33890969-51.75242014-17.26613501-51.75242014-17.26613501-51.85013015-70.87794039 0-13.26572359 0.64374518-26.56881021-0.1293242-39.78855182-1.75017769-29.84500722-20.71763534-49.22055127-47.67729116-49.63151349-26.45385664-0.40234036-45.40981673 16.29764283-48.03652257 45.62248311-2.10366308 23.51389865-2.38242805 47.38990436-1.00584951 70.96128261 1.29898234 22.22641108-4.41424372 32.73610746-28.68971688 38.7654587-61.25051819 15.20845109-112.72130032 48.45610652-152.38340383 98.30603238-16.20855463 20.37277458-15.09349753 46.34669467 1.38232453 61.54365096 18.51913526 17.082207 43.32914604 15.35501892 63.05817547-4.57230635 8.65893286-8.7480211 16.57928077-18.2691115 25.6031939-26.60904337 101.02182641-93.38886249 279.75562807-59.58655568 332.41906073 63.69617182 29.96570961 70.15085308 22.92476006 138.29288283-25.61181571 197.63515789-54.13772121 66.19067769-127.3406129 85.39666715-209.62201579 71.51306095-49.64013527-8.37729489-87.74460798-36.93481179-121.94350919-73.1540339-9.86595122-10.44647075-29.94559301-17.35522318-44.13957281-15.67976583-11.36323213 1.34209133-27.66662377 17.01898137-29.55474741 28.36496993C53.135918 722.48417334 58.61349092 742.83108254 68.32425253 754.03912512zM551.54034797 813.30380957c64.89456834 39.04709666 132.45607861 51.10867498 205.71932003 42.34053732 169.50871978-20.28943238 283.64108302-185.15974447 238.84052425-349.70243653-29.27885829-107.53398725-101.90410058-172.6268542-208.38625908-199.59800198-24.26397557-6.14430762-32.77346769-15.71425027-30.44277039-39.87476987 1.99158249-20.65441261 0.73858217-41.66230774 0.28451097-62.49777247-0.70409495-32.40561449-18.66857606-52.00531972-47.30943802-52.38754354-28.65810268-0.38222378-47.05941143 19.12839329-47.69740771 51.36732339-0.45119538 22.73221025-1.31910176 45.5650063 0.23565594 68.19950375 1.42543353 20.72913295-6.15005362 29.38519008-26.57168323 35.0782995-29.16390188 8.13014131-56.80753606 21.70911712-86.59506366 33.55228303 19.63419243 26.39925284 35.37718112 47.56521057 52.6059559 70.72849961 105.96486174-56.33047523 217.7722765-21.16883075 273.17449561 44.26314819 52.81000048 62.37419713 59.46010447 158.35815121 13.34619281 227.60661635-24.93645913 37.4492328-59.33365607 63.39729022-102.03917361 77.79818761-63.96056622 21.56829813-126.05887135 15.72287207-184.66544-15.58205311C584.42302323 768.55785183 568.38402593 790.38192533 551.54034797 813.30380957zM962.8496638 240.68201664c0.25289959-33.72758922-24.86173874-59.81358985-57.97719416-60.22167621-32.91715965-0.40521334-59.80784106 25.90494847-60.03487527 58.7445147-0.23278301 33.6787314 25.01692549 59.45148265 58.58357918 59.79634629C937.50511551 299.35181095 962.59388848 274.73147705 962.8496638 240.68201664zM564.10485241 240.59580147c0.49717733-32.41998228-26.45098083-60.00613684-58.75600952-60.14983167-34.03221681-0.1494408-58.81923514 24.48526375-59.26468171 58.89682854-0.44832238 34.40581877 23.9967082 59.55206848 57.93983396 59.60092345C538.09644517 298.9954526 563.58755846 274.23717263 564.10485241 240.59580147z" fill="#f09d51" p-id="1913"></path><path d="M1268.03892556 471.6970272l-28.30174431 0 0-26.57168326-0.57764658 0c-11.65349191 20.21758498-29.75017025 30.324941-54.29865682 30.32494102-20.21758498 0-36.29394244-7.19613919-48.23194531-21.58841472-11.93800289-14.38940251-17.90413131-33.81380438-17.90413132-58.26745396 0-26.37626045 6.73632206-47.53072343 20.21471199-63.46338887 13.47838996-15.93266546 31.09513456-23.89899536 52.85310668-23.89899535 21.7550991 0 37.5440698 8.47213191 47.36691478 25.41351991l0.57764658 0 0-98.33764381 28.30174431 0L1268.03892556 471.6970272zM1239.87800023 376.67868659c0-12.80303342-4.21020195-23.51389865-12.63347606-32.12972247-8.42327412-8.61582389-18.79790028-12.92373584-31.11812696-12.92373584-15.01877712 0-26.85907003 5.60977011-35.52374887 16.8235586-8.66467888 11.21666434-12.99558322 26.49983581-12.99558326 45.84951724 0 17.81216733 4.16134415 31.89119353 12.48978409 42.23707853 8.32556413 10.35163378 19.42152603 15.52457627 33.28501283 15.52457632 13.66806399 0 24.83874633-5.07810549 33.50342801-15.23431654 8.66180587-10.15621099 12.99270741-22.78968705 12.99270745-37.90617699L1239.87800023 376.67868659zM1322.33183635 323.10711439c15.88380764-9.91480621 34.22476657-14.87221213 55.01999535-14.87221214 38.50393732 0 57.76165481 20.21758498 57.7616548 60.649882l0 102.81511592-28.01436037 0 0-24.69218136-0.72133853 0c-11.07297235 18.96745769-27.38785875 28.44831216-48.95328392 28.44831218-15.50158667 0-27.82181055-4.19008256-36.96642604-12.56450448-9.14748847-8.37729489-13.71691899-19.68592046-13.71691893-33.93450681 0-29.84213425 17.66272655-47.22034703 52.99680147-52.13176814l47.36116595-6.64148499c0-26.08887647-10.78271253-39.13331468-32.34526186-39.1333147-19.16000464 0-36.63305722 6.45180823-52.41915491 19.34968145L1322.33470936 323.10711439zM1369.69875117 396.60888763c-13.09616622 1.7329369-22.1172063 5.00625811-27.07748241 9.81996921-4.96027609 4.81658414-7.43754114 11.55290611-7.43754112 20.21758501 0 7.60422553 2.69567743 13.81463178 8.08703509 18.62834286 5.38848186 4.81371116 12.51277366 7.2191288 21.37287531 7.21912882 12.32022666 0 22.47643767-4.33090156 30.47150883-12.99558327 7.9864493-8.66467888 11.98398492-19.54222845 11.98398492-32.63552165l0-15.30616387L1369.69875117 396.60888763zM1617.06025956 471.6970272l-28.15805234 0 0-90.82825523c0-32.82807142-11.98685787-49.24066789-35.95770069-49.24066792-12.41793667 0-22.62300267 4.62116134-30.61232778 13.86348679-7.99219817 9.24232546-11.98685787 20.93892354-11.98685793 35.08979714l0 91.11851502-28.30462014 0 0-159.71174017 28.30462014 0 0 26.42511541 0.57764657 0c12.03283993-20.11987501 29.50589246-30.17837324 52.41915494-30.17837317 17.51903457 0 30.8508568 5.60977011 39.99834522 16.82355861 9.14748847 11.21666434 13.71691899 27.55741615 13.71691898 49.02512847L1617.05738653 471.6970272zM1802.90685813 458.26749217c0 59.10662191-28.68684107 88.66424238-86.06340188 88.66424235-19.82961525 0-37.06126304-3.70727578-51.69494337-11.11895434l0-27.29302179c17.80929436 9.91480621 34.89724731 14.87508513 51.2638646 14.87508514 38.79419715 0 58.19560938-20.41300775 58.19560933-61.22752859l0-16.89540601-0.57764658 0c-12.13054988 20.11987501-30.23297697 30.18124903-54.29865676 30.18124905-20.02503799 0-36.05253766-7.17027376-48.08537753-21.51657017-12.03571287-14.34342055-18.04782331-33.35686025-18.04782336-57.04031617 0-27.24129099 6.64435799-48.8297085 19.92732518-64.76524423 13.285843-15.93266546 30.99742457-23.89899536 53.14049348-23.89899535 21.27516532 0 37.06126304 8.47213191 47.36403899 25.41351991l0.57764658 0 0-21.66026214 28.30174433 0L1802.90973114 458.26749217zM1774.60511105 376.67868659c0.09196397-12.32022666-4.04351757-22.91038946-12.41793665-31.76761813-8.37729489-8.85722868-18.68007089-13.285843-30.90258759-13.28584301-15.40387392 0-27.39073175 5.65575205-35.95770069 16.96725339-8.5698419 11.31437715-12.85476422 26.83607762-12.85476426 46.57085587 0 16.944261 4.13835454 30.66118282 12.41793664 41.15363558 8.27958213 10.4924528 19.25484449 15.74011568 32.9257815 15.74011567 13.76577675 0 25.0284231-5.00625811 33.79081196-15.01877714 8.75951588-10.00964318 13.09042025-22.71783963 12.99558325-38.12171633L1774.60223802 376.67868659zM1992.07563293 471.6970272l-28.3017443 0 0-26.57168326-0.57764654 0c-11.65061615 20.21758498-29.75017025 30.324941-54.29865685 30.32494102-20.21471202 0-36.29394244-7.19613919-48.22907231-21.58841472-11.93800289-14.38940251-17.90413131-33.81380438-17.90413134-58.26745396 0-26.37626045 6.73632206-47.53072343 20.21471202-63.46338887 13.47551699-15.93266546 31.09513456-23.89899536 52.85310667-23.89899535s37.5440698 8.47213191 47.36403898 25.41351991l0.57764659 0 0-98.33764381 28.30174427 0L1992.07563293 471.6970272zM1963.91758063 376.67868659c0-12.80303342-4.2130749-23.51389865-12.63347604-32.12972247-8.42614989-8.61582389-18.79790028-12.92373584-31.11812699-12.92373584-15.01877712 0-26.861943 5.60977011-35.52374892 16.8235586-8.66467888 11.21666434-12.99558322 26.49983581-12.99558321 45.84951724 0 17.81216733 4.16421998 31.89119353 12.49265709 42.23707853 8.32556413 10.35163378 19.42440186 15.52457627 33.28501282 15.52457632 13.66806399 0 24.83874633-5.07810549 33.50055221-15.23431654 8.66467888-10.15621099 12.99558322-22.78968705 12.99558324-37.90617699L1963.92045366 376.67868659zM2046.37428976 323.10711439c15.88380764-9.91480621 34.22476657-14.87221213 55.01999537-14.87221214 38.50393732 0 57.76165481 20.21758498 57.76165477 60.649882l0 102.81511592-28.01436038 0 0-24.69218136-0.72133854 0c-11.07297235 18.96745769-27.38785875 28.44831216-48.95328393 28.44831218-15.50158667 0-27.82181055-4.19008256-36.96642598-12.56450448-9.14748847-8.37729489-13.71691899-19.68592046-13.71691897-33.93450681 0-29.84213425 17.66272655-47.22034703 52.99680142-52.13176814l47.361166-6.64148499c0-26.08887647-10.78271253-39.13331468-32.34526191-39.1333147-19.16000464 0-36.63305722 6.45180823-52.41915486 19.34968145L2046.37716275 323.10711439zM2093.73833155 396.60888763c-13.09616622 1.7329369-22.1172063 5.00625811-27.0774824 9.81996921-4.96027609 4.81658414-7.43754114 11.55290611-7.43754113 20.21758501 0 7.60422553 2.69567743 13.81463178 8.08703511 18.62834286 5.38848186 4.81371116 12.51277366 7.2191288 21.37287536 7.21912882 12.32022666 0 22.47643767-4.33090156 30.47150875-12.99558327 7.9864493-8.66467888 11.98398492-19.54222845 11.98398494-32.63552165l0-15.30616387L2093.73833155 396.60888763zM2341.09983992 471.6970272l-28.15805235 0 0-90.82825523c0-32.82807142-11.98685787-49.24066789-35.95770064-49.24066792-12.41793667 0-22.62300267 4.62116134-30.6123278 13.86348679-7.99219817 9.24232546-11.98685787 20.93892354-11.9868579 35.08979714l0 91.11851502-28.30462014 0 0-159.71174017 28.30462014 0 0 26.42511541 0.57764662 0c12.03283993-20.11987501 29.50589246-30.17837324 52.41915483-30.17837317 17.51903457 0 30.8508568 5.60977011 39.99834525 16.82355861 9.14748847 11.21666434 13.71691899 27.55741615 13.716919 49.02512847L2341.09696693 471.6970272zM2526.94643573 458.26749217c0 59.10662191-28.68684107 88.66424238-86.06340191 88.66424235-19.82961525 0-37.06126304-3.70727578-51.69494334-11.11895434l0-27.29302179c17.80929436 9.91480621 34.89724731 14.87508513 51.26386459 14.87508514 38.79419715 0 58.19560938-20.41300775 58.19560932-61.22752859l0-16.89540601-0.57764656 0c-12.13054988 20.11987501-30.23297697 30.18124903-54.2986568 30.18124905-20.02503799 0-36.05253766-7.17027376-48.08537751-21.51657017-12.03571287-14.34342055-18.04782331-33.35686025-18.04782335-57.04031617 0-27.24129099 6.64435799-48.8297085 19.92732524-64.76524423 13.285843-15.93266546 30.99742457-23.89899536 53.14049344-23.89899535 21.27516532 0 37.06126304 8.47213191 47.36403898 25.41351991l0.57764656 0 0-21.66026214 28.30174432 0L2526.94930871 458.26749217zM2498.64756439 376.67868659c0.09196397-12.32022666-4.04351757-22.91038946-12.41793666-31.76761813-8.37729489-8.85722868-18.68007089-13.285843-30.90258755-13.28584301-15.40387392 0-27.39073175 5.65575205-35.95770067 16.96725339-8.5698419 11.31437715-12.85476422 26.83607762-12.85476424 46.57085587 0 16.944261 4.13835454 30.66118282 12.41793664 41.15363558 8.27958213 10.4924528 19.25484449 15.74011568 32.92578143 15.74011567 13.76577675 0 25.0284231-5.00625811 33.79081204-15.01877714 8.75951588-10.00964318 13.09042025-22.71783963 12.99558322-38.12171633L2498.6446914 376.67868659z" fill="#f09d51" p-id="1914"></path><path d="M1031.66129856 836.01590325c0-7.79677536 2.66981202-14.36641299 8.01518771-19.70891284 5.33962686-5.33962686 11.98398492-8.0151877 19.92732521-8.01518775 8.08415932 0 14.80036475 2.70717223 20.1457376 8.12439533 5.33962686 5.41434729 8.0151877 11.9494977 8.01518774 19.59970526 0 7.50938855-2.67268784 13.9726944-8.01518774 19.38704165-5.34537564 5.41722029-12.13054988 8.12151952-20.36127698 8.12151954-7.94334033 0-14.55033814-2.70429921-19.81812042-8.12151954C1034.29375321 849.9914706 1031.66129856 843.52529182 1031.66129856 836.01590325zM1316.06395337 847.49696198c-18.3409561 10.97238653-40.43229701 16.46432718-66.27976873 16.46432721-34.65871834 0-62.52938389-11.11895435-83.60912645-33.35686024-21.08549135-22.23503286-31.62392334-51.04545216-31.62392337-86.42550626 0-39.27700671 11.3718539-70.93829021 34.11555902-94.98098041s53.17498068-36.06690829 91.29956997-36.06690826c21.95052188 0 40.72255682 3.89982555 56.31898054 11.6965981l0 42.02153912c-16.89540602-12.41793667-35.66744085-18.62834292-56.31898054-18.6283429-24.25822956 0-44.00737559 8.41465514-59.24169202 25.23534069-15.23718951 16.82355862-22.85291267 39.24251948-22.85291269 67.25400684 0 27.58615454 7.18176857 49.16882332 21.55392753 64.76524417 14.36928594 15.59642369 33.75345179 23.39607203 58.15824918 23.39607203 20.65153677 0 40.14491021-6.78517698 58.48586636-20.36127698L1316.06970217 847.49696198zM1357.00204951 741.14412768c0-39.56726646 11.04710695-70.79459821 33.14132084-93.68487108 22.09421387-22.88452403 52.0541747-34.33109838 89.8885043-34.33109838 35.95770064 0 64.15024022 11.01261975 84.5862376 33.03211325 20.43025137 22.02236649 30.64968799 52.45651511 30.64968799 91.30244297 0 37.83432959-10.90341495 68.37480997-32.70736905 91.62431416-21.80682711 23.24950423-51.04832516 34.87425774-87.72449147 34.87425777-35.81400866 0-64.40601278-11.26551932-85.77601507-33.790812C1367.68417631 807.64231152 1357.00204951 777.96686166 1357.00204951 741.14412768zM1400.32257372 739.84514532c0 27.58328155 6.96622918 49.3125153 20.9015634 65.19919877 13.93533421 15.88380764 32.67000885 23.82715083 56.20977287 23.82715077 24.25822956 0 42.7428777-7.76228815 55.45107413-23.28686442 12.70532347-15.52170331 19.06229471-37.79696933 19.06229468-66.82292804 0-29.16677765-6.35697122-51.55125132-19.06229468-67.14767222-12.70819643-15.59642369-31.1928445-23.39607203-55.45107413-23.39607203-23.82715083 0-42.63654586 8.16175552-56.42531223 24.47951497C1407.21695555 689.01810835 1400.32257372 711.39970619 1400.32257372 739.84514532zM1999.88677612 858.32852951l-42.45261792 0 0-137.54280588c0-25.99403949-4.04351757-44.58501936-12.13054988-55.77582108-8.08990812-11.19079894-21.37575114-16.78907421-39.85752623-16.78907421-15.5935479 0-28.9512383 7.29384914-40.07018982 21.87867449-11.12182733 14.58482537-16.67986663 31.83946268-16.67986663 51.76966379l0 136.45936009-42.45261786 0 0-141.87658045c0-45.48741294-17.54489716-68.23111796-52.63469426-68.23111792-16.17406743 0-29.56624225 6.93174478-40.17939746 20.7952316-10.61027938 13.86061379-15.91829486 31.55207872-15.91829488 53.06864603l0 136.24382074-42.45549087 0 0-239.56473583 42.45549087 0 0 37.90617698 0.86503058 0c17.03909801-29.02883169 41.94969456-43.53893663 74.73178117-43.53893664 16.02750247 0 30.17837324 4.40562192 42.45261786 13.21399562 12.27424468 8.80837086 20.7923558 20.72338416 25.56008488 35.74216125 17.76331236-32.63264866 44.32924677-48.95328391 79.7093037-48.95328388 52.70654172 0 79.06268553 32.49182969 79.06268554 97.47261325L1999.89252491 858.32852951z" fill="#f09d51" p-id="1915"></path></svg>